<svg xmlns="http://www.w3.org/2000/svg" viewBox="0 0 64 64" width="64" height="64" role="img" aria-label="Near-Buy logo placeholder">
  <rect width="64" height="64" rx="16" fill="#16a34a"/>
  <!-- receipt -->
  <path d="M22 15h20a2 2 0 0 1 2 2v30l-4-2.6-4 2.6-4-2.6-4 2.6-4-2.6-4 2.6V17a2 2 0 0 1 2-2z" fill="#fff"/>
  <rect x="26" y="22" width="12" height="2.6" rx="1.3" fill="#16a34a"/>
  <rect x="26" y="28" width="12" height="2.6" rx="1.3" fill="#bbf7d0"/>
  <rect x="26" y="34" width="8"  height="2.6" rx="1.3" fill="#bbf7d0"/>
  <!-- price tag -->
  <circle cx="43" cy="42" r="11" fill="#f59e0b"/>
  <path d="M43 35.5v13M46.4 38.3c-.9-1-2.2-1.5-3.6-1.5-2 0-3.4 1-3.4 2.6 0 1.5 1.2 2.2 3.3 2.7 2.3.5 3.8 1.3 3.8 3.1 0 1.8-1.6 2.9-3.8 2.9-1.6 0-3-.6-3.9-1.7"
        stroke="#fff" stroke-width="1.9" stroke-linecap="round" fill="none"/>
</svg>
